<?xml version="1.0" encoding="utf-8"?>
<!-- Generator: Adobe Illustrator 13.0.2, SVG Export Plug-In . SVG Version: 6.00 Build 14948)  -->
<svg version="1.2" baseProfile="tiny" id="Layer_1" xmlns="http://www.w3.org/2000/svg" xmlns:xlink="http://www.w3.org/1999/xlink"
	 x="0px" y="0px" width="128px" height="127.997px" viewBox="0 0 128 127.997" xml:space="preserve">
<g>
	<rect fill="#999999" width="128" height="127.997"/>
	<g>
		<g>
			<path fill="#CCCCCC" d="M114.427,71.507c0-13.875-11.247-25.125-25.128-25.125c-2.284,0-4.498,0.311-6.605,0.884
				c-4.022-9.352-13.315-15.903-24.146-15.903c-14.463,0-26.191,11.689-26.265,26.135c-10.409,0.455-18.709,9.036-18.709,19.556
				c0,10.813,8.766,19.581,19.579,19.581c0.042,0,0.083-0.005,0.125-0.005v0.005h56.131v-0.002
				C103.236,96.572,114.427,85.348,114.427,71.507z"/>
			<path fill="#666666" d="M30.749,99.16v-0.129c-11.08-1.199-19.702-10.579-19.704-21.978l0,0
				c0.002-11.09,8.164-20.268,18.811-21.858l0,0c1.24-14.763,13.608-26.357,28.691-26.36l0,0
				c11.115,0.002,20.756,6.295,25.557,15.511l0,0c1.683-0.322,3.419-0.492,5.194-0.492l0,0c15.277,0,27.653,12.379,27.656,27.652
				l0,0c-0.003,14.384-10.981,26.196-25.02,27.526l0,0v0.127H30.749L30.749,99.16z M88.767,94.108l0.629-0.003
				c12.438-0.054,22.506-10.151,22.503-22.599l0,0c-0.021-12.481-10.115-22.578-22.601-22.6l0,0c-2.056,0-4.044,0.28-5.942,0.795
				l0,0l-2.117,0.575l-0.868-2.016c-3.639-8.453-12.036-14.376-21.823-14.373l0,0c-13.07-0.003-23.673,10.565-23.74,23.621l0,0
				l-0.011,2.405l-2.405,0.108c-9.057,0.393-16.296,7.868-16.292,17.03l0,0c0.016,9.403,7.611,17.011,17.008,17.055l0,0
				c0.026-0.002,0.083-0.005,0.17-0.005l0,0h2.524v0.005H88.767L88.767,94.108z"/>
		</g>
	</g>
</g>
</svg>
