<?xml version="1.0" encoding="utf-8"?>
<!-- Generator: Adobe Illustrator 13.0.2, SVG Export Plug-In . SVG Version: 6.00 Build 14948)  -->
<svg version="1.2" baseProfile="tiny" id="Layer_1" xmlns="http://www.w3.org/2000/svg" xmlns:xlink="http://www.w3.org/1999/xlink"
	 x="0px" y="0px" width="128px" height="127.996px" viewBox="0 0 128 127.996" xml:space="preserve">
<g>
	<rect fill="#6699FF" width="128" height="127.996"/>
	<g>
		<path fill="#FFF100" d="M98.908,44.856c4.556,10.994-0.666,23.599-11.66,28.153c-10.996,4.554-23.603-0.668-28.158-11.662
			c-4.555-10.996,0.666-23.599,11.665-28.153C81.75,28.641,94.355,33.86,98.908,44.856z"/>
		<polygon fill="#FFF100" points="76.131,26.879 63.582,15.885 62.486,32.528 		"/>
		<polygon fill="#FFF100" points="95.514,32.528 94.417,15.886 81.873,26.879 		"/>
		<polygon fill="#FFF100" points="105.223,50.229 116.216,37.687 99.572,36.59 		"/>
		<g>
			<polygon fill="#FFF100" points="99.572,69.613 116.216,68.516 105.223,55.972 			"/>
			<polygon fill="#FFF100" points="52.775,50.229 41.781,37.686 58.423,36.591 			"/>
		</g>
	</g>
	<g>
		<g>
			<path fill="#FFFFFF" d="M110.949,85.229c0-12.918-10.473-23.393-23.395-23.393c-2.129,0-4.189,0.29-6.15,0.823
				c-3.744-8.707-12.396-14.805-22.479-14.805c-13.465,0-24.385,10.882-24.453,24.332c-9.691,0.424-17.418,8.412-17.418,18.207
				c0,10.068,8.161,18.229,18.228,18.229c0.04,0,0.076-0.003,0.115-0.003v0.003h52.259v-0.003
				C100.532,108.564,110.949,98.116,110.949,85.229z"/>
			<path fill="#CCCCCC" d="M32.87,111.148v-0.141c-10.326-1.195-18.342-9.97-18.344-20.615l0,0
				c0.004-10.365,7.594-18.949,17.525-20.502l0,0c1.225-13.77,12.785-24.562,26.873-24.563l0,0
				c10.37,0.002,19.37,5.846,23.889,14.42l0,0c1.537-0.286,3.123-0.438,4.742-0.437l0,0c14.317,0,25.92,11.602,25.922,25.918l0,0
				c-0.002,13.431-10.211,24.467-23.293,25.785l0,0v0.135H32.87L32.87,111.148z M87.016,106.094l0.631-0.002
				c11.482-0.047,20.775-9.369,20.773-20.863l0,0c-0.02-11.524-9.34-20.847-20.865-20.864l0,0c-1.9,0-3.736,0.255-5.486,0.733l0,0
				l-2.119,0.575l-0.865-2.017c-3.361-7.807-11.117-13.28-20.159-13.277l0,0c-12.073-0.002-21.867,9.76-21.927,21.82l0,0
				l-0.013,2.404L34.58,74.71c-8.342,0.363-15.004,7.246-15.001,15.683l0,0c0.016,8.659,7.016,15.67,15.671,15.701l0,0
				c0.025,0,0.075-0.002,0.146-0.002l0,0h2.526v0.002H87.016L87.016,106.094z"/>
		</g>
	</g>
</g>
</svg>
