<?xml version="1.0" encoding="utf-8"?>
<!-- Generator: Adobe Illustrator 13.0.2, SVG Export Plug-In . SVG Version: 6.00 Build 14948)  -->
<svg version="1.2" baseProfile="tiny" id="Layer_1" xmlns="http://www.w3.org/2000/svg" xmlns:xlink="http://www.w3.org/1999/xlink"
	 x="0px" y="0px" width="128px" height="128px" viewBox="0 0 128 128" xml:space="preserve">
<g>
	<rect fill="#000099" width="128" height="128"/>
	<g>
		<path fill="#FFF380" d="M100.453,60.048c-13.955,0-25.269-11.313-25.269-25.269c0-9.894,5.7-18.437,13.983-22.584
			c-0.906-0.083-1.822-0.132-2.752-0.132c-16.352,0-29.606,13.255-29.606,29.607c0,16.352,13.255,29.607,29.606,29.607
			c10.521,0,19.753-5.491,25.004-13.76C108.1,59.122,104.39,60.048,100.453,60.048z"/>
	</g>
	<g>
		<g>
			<path fill="#E6E6E6" d="M110.946,85.231c0-12.921-10.471-23.393-23.394-23.393c-2.13,0-4.19,0.289-6.149,0.823
				c-3.746-8.707-12.397-14.806-22.479-14.806c-13.463,0-24.385,10.883-24.454,24.332c-9.69,0.425-17.417,8.412-17.417,18.209
				c0,10.068,8.16,18.229,18.229,18.229c0.04,0,0.076-0.002,0.116-0.002v0.002h52.255v-0.002
				C100.527,108.568,110.946,98.118,110.946,85.231z"/>
			<path fill="#999999" d="M32.871,111.152v-0.141c-10.329-1.196-18.342-9.967-18.345-20.615l0,0
				c0.002-10.366,7.592-18.95,17.524-20.502l0,0c1.226-13.77,12.786-24.565,26.875-24.568l0,0
				c10.367,0.002,19.365,5.847,23.884,14.421l0,0c1.537-0.286,3.123-0.437,4.744-0.437l0,0c14.318,0,25.918,11.605,25.92,25.92l0,0
				c-0.002,13.43-10.212,24.47-23.293,25.786l0,0v0.135H32.871L32.871,111.152z M87.014,106.098l0.629-0.003
				c11.48-0.048,20.777-9.371,20.775-20.864l0,0c-0.019-11.523-9.339-20.847-20.865-20.866l0,0c-1.902,0-3.737,0.257-5.487,0.735
				l0,0l-2.119,0.577L79.08,63.66c-3.362-7.809-11.116-13.28-20.155-13.28l0,0c-12.073,0-21.871,9.763-21.928,21.82l0,0
				l-0.016,2.408l-2.401,0.104c-8.34,0.362-15.003,7.248-15,15.685l0,0c0.016,8.665,7.021,15.677,15.686,15.702l0,0
				c0.022,0,0.069-0.003,0.133-0.003l0,0h2.528v0.003H87.014L87.014,106.098z"/>
		</g>
	</g>
</g>
</svg>
