<?xml version="1.0" encoding="utf-8"?>
<!-- Generator: Adobe Illustrator 13.0.2, SVG Export Plug-In . SVG Version: 6.00 Build 14948)  -->
<svg version="1.2" baseProfile="tiny" id="Layer_1" xmlns="http://www.w3.org/2000/svg" xmlns:xlink="http://www.w3.org/1999/xlink"
	 x="0px" y="0px" width="128px" height="127.996px" viewBox="0 0 128 127.996" xml:space="preserve">
<g>
	<rect fill="#999999" width="128" height="127.996"/>
	<g>
		<g>
			<path fill="#CCCCCC" d="M112.125,51.115c0-12.897-10.456-23.354-23.356-23.354c-2.125,0-4.182,0.289-6.14,0.822
				c-3.739-8.692-12.377-14.782-22.443-14.782c-13.443,0-24.345,10.865-24.415,24.292c-9.674,0.423-17.39,8.399-17.39,18.178
				c0,10.051,8.148,18.198,18.199,18.198c0.039,0,0.077-0.004,0.116-0.004v0.004h52.172v-0.002
				C101.723,74.414,112.125,63.981,112.125,51.115z"/>
			<path fill="#333333" d="M34.168,76.999v-0.14c-10.312-1.195-18.313-9.955-18.313-20.587l0,0
				c0.002-10.35,7.582-18.922,17.497-20.474l0,0c1.224-13.748,12.766-24.523,26.833-24.525l0,0
				c10.354,0.005,19.338,5.84,23.85,14.398l0,0c1.535-0.287,3.118-0.438,4.734-0.438l0,0c14.298,0.002,25.882,11.587,25.882,25.882
				l0,0c0,13.409-10.195,24.43-23.256,25.748l0,0v0.137H34.168L34.168,76.999z M38.298,38.106l-0.013,2.406l-2.404,0.106
				c-8.326,0.363-14.977,7.234-14.974,15.653l0,0c0.016,8.633,6.983,15.621,15.605,15.673l0,0c0.029-0.001,0.091-0.005,0.184-0.005
				l0,0h2.526v0.003h49.635c11.463-0.049,20.744-9.355,20.74-20.829l0,0c-0.021-11.502-9.324-20.808-20.828-20.829l0,0
				c-1.895,0.003-3.726,0.26-5.476,0.734l0,0l-2.119,0.578l-0.866-2.017C76.95,21.787,69.21,16.326,60.185,16.329l0,0
				c-0.002,0-0.003,0-0.005,0l0,0C48.134,16.33,38.358,26.073,38.298,38.106L38.298,38.106z"/>
		</g>
	</g>
	<path fill="#B8FAFF" d="M25.704,108.269c-0.762,1.318-2.449,1.771-3.768,1.01l0,0c-1.319-0.763-1.772-2.448-1.01-3.769
		l9.379-16.244c0.762-1.32,2.449-1.771,3.769-1.011l0,0c1.319,0.762,1.771,2.449,1.009,3.769L25.704,108.269z"/>
	<path fill="#B8FAFF" d="M64.324,108.269c-0.762,1.318-2.449,1.771-3.769,1.01l0,0c-1.318-0.763-1.771-2.448-1.01-3.769l9.38-16.244
		c0.761-1.32,2.448-1.771,3.769-1.011l0,0c1.318,0.762,1.771,2.449,1.01,3.769L64.324,108.269z"/>
	<path fill="#B8FAFF" d="M49.614,97.852c-0.514,0.89-2,0.994-3.319,0.232l0,0c-1.32-0.762-1.973-2.101-1.458-2.991l6.331-10.964
		c0.514-0.892,2.001-0.995,3.32-0.234l0,0c1.319,0.762,1.972,2.102,1.458,2.992L49.614,97.852z"/>
	<path fill="#B8FAFF" d="M89.021,97.852c-0.515,0.89-2.001,0.996-3.32,0.232l0,0c-1.319-0.762-1.973-2.101-1.458-2.991l6.33-10.964
		c0.514-0.892,2.001-0.995,3.32-0.234l0,0c1.319,0.762,1.972,2.102,1.457,2.992L89.021,97.852z"/>
</g>
</svg>
