<?xml version="1.0" encoding="utf-8"?>
<!-- Generator: Adobe Illustrator 13.0.2, SVG Export Plug-In . SVG Version: 6.00 Build 14948)  -->
<svg version="1.2" baseProfile="tiny" id="Layer_1" xmlns="http://www.w3.org/2000/svg" xmlns:xlink="http://www.w3.org/1999/xlink"
	 x="0px" y="0px" width="128px" height="127.996px" viewBox="0 0 128 127.996" xml:space="preserve">
<g>
	<rect fill="#999999" width="128" height="127.996"/>
	<g>
		<g>
			<path fill="#CCCCCC" d="M112.123,51.115c0-12.897-10.453-23.354-23.355-23.354c-2.125,0-4.18,0.289-6.139,0.822
				c-3.738-8.692-12.379-14.782-22.444-14.782c-13.443,0-24.345,10.865-24.414,24.292c-9.674,0.423-17.39,8.399-17.39,18.178
				c0,10.05,8.148,18.198,18.198,18.198c0.04,0,0.077-0.003,0.116-0.003v0.003h52.173v-0.002
				C101.723,74.414,112.123,63.981,112.123,51.115z"/>
			<path fill="#333333" d="M34.167,76.998v-0.139c-10.311-1.197-18.312-9.956-18.315-20.586l0,0
				c0.005-10.351,7.583-18.923,17.499-20.474l0,0c1.224-13.747,12.766-24.522,26.832-24.524l0,0
				c10.352,0.002,19.34,5.836,23.85,14.396l0,0c1.535-0.286,3.117-0.438,4.734-0.436l0,0c14.299,0,25.881,11.586,25.883,25.88l0,0
				h-0.002c0,13.407-10.191,24.429-23.256,25.748l0,0v0.135H34.167L34.167,76.998z M88.227,71.944l0.629-0.003
				c11.465-0.047,20.74-9.354,20.74-20.826l0,0h-0.002c-0.018-11.501-9.32-20.808-20.826-20.829l0,0
				c-1.896,0.002-3.727,0.258-5.477,0.735l0,0l-2.119,0.576l-0.867-2.016c-3.354-7.795-11.096-13.256-20.122-13.253l0,0
				c-12.048-0.002-21.825,9.741-21.887,21.778l0,0l-0.013,2.405l-2.402,0.107c-8.327,0.362-14.977,7.233-14.974,15.654l0,0
				c0.016,8.64,6.997,15.635,15.634,15.671l0,0c0.034-0.003,0.085-0.003,0.153-0.003l0,0h2.527v0.003H88.227L88.227,71.944z"/>
		</g>
	</g>
	<g>
		<polygon fill="#FFFFFF" points="43.167,85.804 39.32,85.804 42.039,83.085 40.251,81.298 37.532,84.018 37.532,80.172 
			35.006,80.172 35.006,84.017 32.288,81.298 30.5,83.085 33.218,85.804 29.373,85.804 29.373,88.332 33.218,88.332 30.5,91.048 
			32.288,92.837 35.006,90.118 35.006,93.962 37.532,93.962 37.532,90.118 40.251,92.839 42.039,91.048 39.321,88.332 
			43.167,88.332 		"/>
	</g>
	<g>
		<polygon fill="#FFFFFF" points="58.107,101.043 54.26,101.043 56.979,98.324 55.192,96.538 52.472,99.256 52.472,95.411 
			49.947,95.411 49.947,99.254 47.229,96.538 45.441,98.324 48.159,101.043 44.314,101.043 44.314,103.57 48.158,103.57 
			45.441,106.287 47.229,108.076 49.947,105.357 49.947,109.201 52.472,109.201 52.472,105.357 55.192,108.079 56.979,106.287 
			54.262,103.57 58.107,103.57 		"/>
	</g>
	<g>
		<polygon fill="#FFFFFF" points="85.379,85.804 81.531,85.804 84.25,83.085 82.463,81.298 79.744,84.018 79.744,80.171 
			77.219,80.171 77.219,84.015 74.5,81.298 72.713,83.085 75.43,85.804 71.586,85.804 71.586,88.332 75.43,88.332 72.713,91.048 
			74.5,92.837 77.219,90.118 77.219,93.962 79.744,93.962 79.744,90.118 82.463,92.839 84.25,91.048 81.533,88.332 85.379,88.332 		
			"/>
	</g>
	<g>
		<polygon fill="#FFFFFF" points="102.541,101.043 98.695,101.043 101.414,98.324 99.627,96.538 96.906,99.256 96.906,95.411 
			94.381,95.411 94.381,99.254 91.664,96.538 89.875,98.324 92.594,101.043 88.75,101.043 88.75,103.57 92.594,103.57 
			89.875,106.287 91.664,108.076 94.381,105.357 94.381,109.201 96.906,109.201 96.906,105.357 99.627,108.079 101.414,106.287 
			98.697,103.57 102.541,103.57 		"/>
	</g>
	<g>
		<polygon fill="#FFFFFF" points="75.9,111.86 72.053,111.86 74.773,109.141 72.984,107.354 70.266,110.074 70.266,106.226 
			67.74,106.226 67.74,110.071 65.021,107.354 63.234,109.141 65.953,111.86 62.108,111.86 62.108,114.387 65.953,114.387 
			63.234,117.104 65.021,118.891 67.74,116.173 67.74,120.017 70.266,120.017 70.266,116.173 72.984,118.894 74.773,117.104 
			72.057,114.387 75.9,114.387 		"/>
	</g>
	<g>
		<polygon fill="#FFFFFF" points="31.011,111.86 27.164,111.86 29.883,109.141 28.096,107.354 25.376,110.074 25.376,106.226 
			22.851,106.226 22.851,110.071 20.132,107.354 18.345,109.141 21.063,111.86 17.218,111.86 17.218,114.387 21.063,114.387 
			18.345,117.104 20.132,118.891 22.851,116.173 22.851,120.017 25.376,120.017 25.376,116.173 28.096,118.894 29.883,117.104 
			27.167,114.387 31.011,114.387 		"/>
	</g>
</g>
</svg>
